<svg width="40" height="40" viewBox="0 0 40 40" xmlns="http://www.w3.org/2000/svg" xmlns:xlink="http://www.w3.org/1999/xlink">
    <defs>
        <path id="b3f7r77ufa" d="M0 0h31.524v17.129H0z"/>
        <path id="xf8usvvcwc" d="M0 0h40v12.396H0z"/>
    </defs>
    <g fill="none" fill-rule="evenodd">
        <path d="M0 0h40v40H0z"/>
        <g transform="translate(4.238 4.706)">
            <mask id="acv4avd6fb" fill="#fff">
                <use xlink:href="#b3f7r77ufa"/>
            </mask>
            <path d="M31.524 15.734c0 .767-.623 1.395-1.385 1.395H1.386A1.394 1.394 0 0 1 0 15.734V1.394C0 .628.623 0 1.386 0h28.753c.762 0 1.385.627 1.385 1.395v14.339z" fill="#F78470" mask="url(#acv4avd6fb)"/>
        </g>
        <g transform="translate(0 21.722)">
            <mask id="01pxfy271d" fill="#fff">
                <use xlink:href="#xf8usvvcwc"/>
            </mask>
            <path d="M39.917 11.09c.269.718-.135 1.306-.897 1.306H.98c-.762 0-1.166-.588-.897-1.305L3.75 1.306C4.018.587 4.861 0 5.623 0h28.754c.762 0 1.605.587 1.875 1.306l3.665 9.785z" fill="#DA6C59" mask="url(#01pxfy271d)"/>
        </g>
        <path d="M18.31 8.8a.697.697 0 0 1-.693.697H7.547a.697.697 0 0 1-.694-.698v-.774c0-.384.312-.697.693-.697h10.07c.382 0 .693.313.693.697V8.8z" fill="#FFF"/>
        <g opacity=".8" transform="rotate(-90 20.614 5.269)" fill="#FFF" stroke="#FFF" stroke-width=".5">
            <rect y="3.989" width="10.416" height="1.331" rx=".666"/>
            <path d="m11.345 4.133.01.01a.651.651 0 0 1 0 .92L7.57 8.85a.651.651 0 1 1-.92-.92l3.304-3.305-3.212-3.212A.666.666 0 1 1 7.683.47l3.662 3.662z"/>
        </g>
        <g>
            <path d="M27.99 30.588c0 4.549-3.633 8.236-8.113 8.236-4.48 0-8.112-3.687-8.112-8.236 0-4.548 3.632-8.235 8.112-8.235s8.112 3.687 8.112 8.235" fill="#FCD462"/>
            <path d="M25.992 30.588c0 3.428-2.738 6.208-6.115 6.208-3.377 0-6.114-2.78-6.114-6.208 0-3.428 2.737-6.207 6.114-6.207s6.115 2.78 6.115 6.207" fill="#F6C358"/>
        </g>
    </g>
</svg>
