<svg width="40" height="40" viewBox="0 0 40 40" xmlns="http://www.w3.org/2000/svg">
    <g fill="none" fill-rule="evenodd">
        <path d="M0 0h34v34H0z"/>
        <g transform="translate(5)">
            <rect fill="#F78470" width="29.412" height="40" rx="4.75"/>
            <rect fill="#FFF" x="3.394" y="3.333" width="22.624" height="33.333" rx="2.85"/>
            <path d="M9.05 0h11.312v3.656a1.9 1.9 0 0 1-1.9 1.9H10.95a1.9 1.9 0 0 1-1.9-1.9V0z" fill="#F78470"/>
        </g>
        <path d="m21.763 12.85-6.192 5.902c-.639.609-.213 1.697.663 1.697l1.862-.002-2.937 5.181c-.64 1.128.795 2.28 1.73 1.39l6.193-5.902c.639-.61.213-1.698-.663-1.697l-1.862.001 2.937-5.18c.64-1.129-.796-2.28-1.73-1.39" fill="#FFC55C"/>
    </g>
</svg>
