<svg width="40" height="40" viewBox="0 0 40 40" xmlns="http://www.w3.org/2000/svg" xmlns:xlink="http://www.w3.org/1999/xlink">
    <defs>
        <path id="9nuhu1slna" d="M0 0h36v21.895H0z"/>
    </defs>
    <g fill="none" fill-rule="evenodd">
        <path d="M0 0h34v34H0z"/>
        <g transform="translate(2 7.084)">
            <mask id="g53lng6qlb" fill="#fff">
                <use xlink:href="#9nuhu1slna"/>
            </mask>
            <path d="M33.596 12.688H19.733L16.987 9.81V2.914C16.987.922 15.394.088 13.414 0 5.34 0 0 6.534 0 12.86v5.677c0 2.048 1.315 3.358 3.372 3.358h29.256c2.057 0 3.372-1.31 3.372-3.358v-3.455a2.4 2.4 0 0 0-2.404-2.394" fill="#FFC55C" mask="url(#g53lng6qlb)"/>
        </g>
        <path d="M15.02 10.894s-.8-.088-2.108.209c-1.99.452-4.862 1.885-6.565 5.423-.33.682-.416 1.506-.472 2.3h9.145v-7.932z" fill="#FFF"/>
        <path d="M26.414 29.629A3.979 3.979 0 0 0 30.4 33.6a3.979 3.979 0 0 0 3.987-3.971 3.978 3.978 0 0 0-3.987-3.97 3.978 3.978 0 0 0-3.986 3.97M5.508 29.629A3.979 3.979 0 0 0 9.495 33.6a3.98 3.98 0 0 0 3.987-3.971 3.979 3.979 0 0 0-3.987-3.97 3.979 3.979 0 0 0-3.987 3.97" fill="#6D7699"/>
        <path d="M18.991 8.134c0-1.174.964-2.134 2.143-2.134h14.33c1.178 0 2.141.96 2.141 2.134v9.5a2.144 2.144 0 0 1-2.142 2.135H21.134a2.145 2.145 0 0 1-2.143-2.134v-9.5z" fill="#C9CDDF"/>
        <path fill="#F78470" d="M26.03 10.204h4.537V6H26.03z"/>
    </g>
</svg>
