<svg width="18" height="19" viewBox="0 0 18 19" fill="none" xmlns="http://www.w3.org/2000/svg">
<path fill-rule="evenodd" clip-rule="evenodd" d="M6.04314 11.75H11.5791C12.5776 11.75 13.5559 12.0314 14.4017 12.562C15.2476 13.0927 15.9267 13.851 16.3611 14.75L16.4241 14.88C16.5714 15.1849 16.6389 15.5222 16.6202 15.8603C16.6016 16.1984 16.4973 16.5263 16.3174 16.8131C16.1374 17.0999 15.8875 17.3363 15.5912 17.5002C15.2948 17.6641 14.9618 17.75 14.6231 17.75H2.99914C2.6606 17.7499 2.32765 17.6638 2.03146 17.4998C1.73526 17.3359 1.48554 17.0994 1.30566 16.8127C1.12579 16.5259 1.02166 16.1981 1.00303 15.8601C0.9844 15.522 1.05188 15.1848 1.19914 14.88L1.26114 14.75C1.69562 13.851 2.37473 13.0927 3.22055 12.562C4.06637 12.0314 5.04465 11.75 6.04314 11.75Z" fill="#94949A" stroke="#94949A" stroke-width="1.5"/>
<path d="M8.81152 11.5C11.711 11.5 14.0615 9.1495 14.0615 6.25C14.0615 3.35051 11.711 1 8.81152 1C5.91203 1 3.56152 3.35051 3.56152 6.25C3.56152 9.1495 5.91203 11.5 8.81152 11.5Z" fill="#94949A" stroke="#94949A" stroke-width="1.5"/>
</svg>
