<svg width="120" height="40" viewBox="0 0 120 40" xmlns="http://www.w3.org/2000/svg" xmlns:xlink="http://www.w3.org/1999/xlink">
    <defs>
        <path id="1gfunvnsoa" d="M0 0h119.664v40H0z"/>
        <path id="4av2ij7sdc" d="M0 40h120V0H0z"/>
    </defs>
    <g fill="none" fill-rule="evenodd">
        <mask id="np1mhuiqlb" fill="#fff">
            <use xlink:href="#1gfunvnsoa"/>
        </mask>
        <path d="M110.135 0H9.535c-.367 0-.73 0-1.095.002-.306.002-.61.008-.92.013-.664.016-1.338.057-2.003.176A6.444 6.444 0 0 0 .82 3.618a6.594 6.594 0 0 0-.625 1.903c-.121.663-.163 1.333-.18 2.002-.01.307-.01.615-.015.921v23.115c.005.31.006.611.015.921.017.67.059 1.34.18 2.002.116.67.314 1.298.625 1.905a6.206 6.206 0 0 0 1.178 1.614c.473.478 1.02.875 1.618 1.179a6.76 6.76 0 0 0 1.9.631c.666.119 1.34.158 2.005.176.309.007.613.011.919.011.366.002.728.002 1.095.002h100.6c.359 0 .725 0 1.084-.002.305 0 .617-.004.922-.011.67-.018 1.342-.057 2-.176a6.848 6.848 0 0 0 1.908-.631 6.254 6.254 0 0 0 1.617-1.179 6.41 6.41 0 0 0 1.182-1.614 6.595 6.595 0 0 0 .619-1.905c.123-.662.162-1.332.186-2.002.003-.31.003-.611.003-.921.008-.364.008-.725.008-1.094V9.536c0-.366 0-.729-.008-1.092 0-.306 0-.614-.003-.921-.024-.669-.063-1.339-.186-2.002a6.612 6.612 0 0 0-.62-1.903 6.464 6.464 0 0 0-2.798-2.8 6.806 6.806 0 0 0-1.908-.627c-.658-.119-1.33-.16-2-.176-.305-.005-.617-.011-.922-.013-.36-.002-.725-.002-1.084-.002" fill="#B3B1B1" mask="url(#np1mhuiqlb)"/>
        <path d="M8.445 39.125c-.305 0-.602-.004-.904-.011-.56-.015-1.222-.047-1.87-.163a5.86 5.86 0 0 1-1.656-.548 5.39 5.39 0 0 1-1.397-1.016 5.33 5.33 0 0 1-1.021-1.397 5.752 5.752 0 0 1-.543-1.657C.932 33.66.9 32.977.888 32.458c-.006-.211-.015-.913-.015-.913V8.444s.009-.691.015-.894c.013-.524.044-1.206.165-1.872a5.755 5.755 0 0 1 .544-1.662 5.585 5.585 0 0 1 2.417-2.421 5.825 5.825 0 0 1 1.654-.544C6.34.931 7.024.9 7.543.887l.902-.012h102.769l.913.013c.513.012 1.195.043 1.859.162a5.957 5.957 0 0 1 1.67.548c.513.263.983.606 1.392 1.016.409.406.752.878 1.023 1.404a5.77 5.77 0 0 1 .536 1.649c.116.631.152 1.279.173 1.887.003.283.003.588.003.89.008.375.008.732.008 1.092v20.929c0 .363 0 .718-.008 1.075 0 .325 0 .623-.004.93-.02.589-.056 1.236-.17 1.853a5.771 5.771 0 0 1-.54 1.67c-.27.52-.613.989-1.016 1.386a5.4 5.4 0 0 1-1.4 1.022 5.842 5.842 0 0 1-1.667.55c-.641.116-1.304.148-1.87.163-.293.007-.6.011-.897.011l-1.084.002-101.69-.002z" fill="#0A0A05"/>
        <path d="M24.769 20.3c-.025-2.75 2.252-4.088 2.357-4.151-1.29-1.881-3.29-2.138-3.992-2.158-1.68-.176-3.307 1.005-4.163 1.005-.872 0-2.19-.987-3.608-.958-1.826.028-3.536 1.086-4.473 2.728-1.934 3.348-.491 8.269 1.36 10.976.928 1.325 2.01 2.806 3.429 2.753 1.387-.057 1.905-.884 3.579-.884 1.659 0 2.145.884 3.59.85 1.49-.023 2.427-1.33 3.322-2.668 1.07-1.52 1.5-3.016 1.518-3.093-.034-.012-2.891-1.101-2.92-4.4M22.037 12.21c.746-.932 1.256-2.201 1.115-3.49-1.08.048-2.43.747-3.208 1.66-.688.804-1.303 2.122-1.144 3.36 1.213.09 2.458-.61 3.237-1.53M38.06 25.59h3.751l-1.85-5.446h-.05l-1.852 5.447zm4.242 1.55H37.57l-1.137 3.356h-2.005l4.484-12.418h2.083l4.483 12.418h-2.039l-1.136-3.356zM53.25 25.97c0-1.833-.947-3.038-2.394-3.038-1.42 0-2.375 1.23-2.375 3.038 0 1.824.956 3.046 2.375 3.046 1.447 0 2.393-1.196 2.393-3.046m1.91 0c0 2.813-1.505 4.62-3.777 4.62-1.29 0-2.316-.576-2.85-1.583h-.042v4.484h-1.858V21.443h1.799v1.506h.034c.515-.972 1.617-1.601 2.882-1.601 2.298 0 3.813 1.816 3.813 4.622M63.214 25.97c0-1.833-.947-3.038-2.393-3.038-1.42 0-2.375 1.23-2.375 3.038 0 1.824.955 3.046 2.375 3.046 1.446 0 2.393-1.196 2.393-3.046m1.91 0c0 2.813-1.506 4.62-3.778 4.62-1.29 0-2.315-.576-2.849-1.583h-.043v4.484h-1.858V21.443h1.8v1.506h.033c.516-.972 1.618-1.601 2.883-1.601 2.298 0 3.812 1.816 3.812 4.622M71.71 27.036c.139 1.231 1.335 2.04 2.97 2.04 1.566 0 2.692-.809 2.692-1.919 0-.964-.68-1.54-2.288-1.936l-1.61-.388c-2.28-.55-3.339-1.617-3.339-3.348 0-2.142 1.867-3.614 4.518-3.614 2.624 0 4.423 1.472 4.484 3.614h-1.876c-.112-1.239-1.136-1.987-2.633-1.987-1.498 0-2.522.757-2.522 1.858 0 .878.654 1.395 2.255 1.79l1.368.336c2.547.603 3.606 1.626 3.606 3.443 0 2.323-1.85 3.778-4.793 3.778-2.755 0-4.614-1.42-4.734-3.667h1.902zM83.346 19.3v2.143h1.722v1.47h-1.722v4.992c0 .776.345 1.137 1.102 1.137a5.7 5.7 0 0 0 .611-.043v1.463c-.206.052-.619.086-1.032.086-1.833 0-2.548-.688-2.548-2.444v-5.19h-1.317v-1.471h1.317V19.3h1.867zM92.76 25.97c0-1.954-.896-3.107-2.4-3.107-1.507 0-2.402 1.162-2.402 3.107 0 1.962.895 3.106 2.401 3.106 1.505 0 2.401-1.144 2.401-3.106m-6.695 0c0-2.85 1.677-4.64 4.294-4.64 2.625 0 4.295 1.79 4.295 4.64 0 2.856-1.662 4.639-4.295 4.639s-4.294-1.783-4.294-4.64M96.186 21.442h1.772v1.541h.043c.285-1.024 1.111-1.636 2.178-1.636.267 0 .49.035.637.07v1.738c-.147-.06-.474-.112-.835-.112-1.196 0-1.937.81-1.937 2.083v5.37h-1.858v-9.054zM103.102 25.135h4.526c-.043-1.386-.929-2.298-2.22-2.298-1.283 0-2.21.93-2.306 2.298zm6.282 2.702c-.25 1.644-1.85 2.772-3.898 2.772-2.634 0-4.269-1.765-4.269-4.596 0-2.84 1.644-4.682 4.191-4.682 2.505 0 4.08 1.72 4.08 4.466v.637h-6.395v.112c0 1.549.973 2.565 2.436 2.565 1.032 0 1.842-.491 2.091-1.274h1.764zM36.598 13.854h1.125c1.248 0 1.968-.777 1.968-2.146 0-1.348-.732-2.134-1.968-2.134h-1.125v4.28zm1.229-5.123c1.769 0 2.807 1.087 2.807 2.965 0 1.906-1.03 3.002-2.807 3.002H35.67V8.731h2.156zM45.014 12.444c0-.976-.438-1.547-1.208-1.547-.772 0-1.207.571-1.207 1.547 0 .984.435 1.55 1.207 1.55.77 0 1.208-.57 1.208-1.55m-3.333 0c0-1.452.81-2.336 2.125-2.336 1.312 0 2.122.884 2.122 2.336 0 1.46-.807 2.34-2.122 2.34-1.318 0-2.125-.88-2.125-2.34M51.573 14.698h-.922l-.93-3.316h-.07l-.928 3.316h-.913l-1.24-4.503h.9l.807 3.436h.067l.925-3.436h.853l.926 3.436h.07l.803-3.436h.888zM53.853 10.195h.855v.715h.068c.218-.5.665-.802 1.343-.802 1.005 0 1.559.604 1.559 1.675v2.915h-.889v-2.692c0-.724-.315-1.083-.971-1.083-.657 0-1.075.438-1.075 1.14v2.635h-.89v-4.503z" fill="#FFFFFE"/>
        <mask id="gct6u00dfd" fill="#fff">
            <use xlink:href="#4av2ij7sdc"/>
        </mask>
        <path fill="#FFFFFE" mask="url(#gct6u00dfd)" d="M59.094 14.698h.889V8.437h-.889zM64.55 12.444c0-.976-.437-1.547-1.207-1.547-.772 0-1.207.571-1.207 1.547 0 .984.435 1.55 1.207 1.55.77 0 1.208-.57 1.208-1.55m-3.333 0c0-1.452.81-2.336 2.125-2.336 1.312 0 2.123.884 2.123 2.336 0 1.46-.808 2.34-2.123 2.34-1.318 0-2.125-.88-2.125-2.34M69.295 13.04v-.376l-1.1.07c-.62.04-.9.252-.9.649 0 .406.351.64.834.64.67 0 1.166-.425 1.166-.983m-2.895.385c0-.811.604-1.278 1.675-1.344l1.22-.071v-.388c0-.476-.314-.745-.922-.745-.496 0-.84.183-.938.5h-.86c.09-.773.818-1.27 1.84-1.27 1.128 0 1.765.563 1.765 1.515v3.076h-.856v-.633h-.07c-.269.45-.76.707-1.353.707-.868 0-1.5-.524-1.5-1.347M72.266 12.444c0 .955.45 1.53 1.203 1.53.75 0 1.212-.583 1.212-1.526 0-.939-.468-1.53-1.212-1.53-.748 0-1.203.58-1.203 1.526m-.918 0c0-1.423.731-2.324 1.87-2.324.615 0 1.136.293 1.38.79h.066V8.437h.89v6.26h-.852v-.71h-.07c-.269.491-.795.785-1.415.785-1.145 0-1.869-.902-1.869-2.328M82.563 12.444c0-.976-.438-1.547-1.208-1.547-.772 0-1.207.571-1.207 1.547 0 .984.435 1.55 1.207 1.55.77 0 1.208-.57 1.208-1.55m-3.333 0c0-1.452.811-2.336 2.125-2.336 1.312 0 2.122.884 2.122 2.336 0 1.46-.807 2.34-2.122 2.34-1.318 0-2.125-.88-2.125-2.34M84.67 10.195h.855v.715h.066c.22-.5.666-.802 1.345-.802 1.004 0 1.557.604 1.557 1.675v2.915h-.887v-2.692c0-.724-.316-1.083-.972-1.083-.657 0-1.076.438-1.076 1.14v2.635h-.889v-4.503zM93.515 9.074v1.142h.976v.748h-.976v2.316c0 .47.194.678.637.678.136 0 .215-.01.34-.021v.74a2.974 2.974 0 0 1-.485.046c-.988 0-1.382-.348-1.382-1.216v-2.543h-.714v-.748h.714V9.074h.89zM95.705 8.437h.88v2.481h.07c.22-.504.696-.806 1.374-.806.959 0 1.55.608 1.55 1.679v2.907h-.89V12.01c0-.719-.334-1.084-.962-1.084-.728 0-1.133.46-1.133 1.142v2.63h-.89V8.437zM101.635 12.03h2.274c-.02-.706-.45-1.166-1.108-1.166-.657 0-1.116.464-1.166 1.167zm3.126 1.452c-.202.807-.922 1.303-1.95 1.303-1.29 0-2.08-.885-2.08-2.324 0-1.44.805-2.353 2.075-2.353 1.253 0 2.01.856 2.01 2.27v.31h-3.18v.05c.028.79.487 1.29 1.198 1.29.538 0 .906-.194 1.072-.546h.855z"/>
    </g>
</svg>
