<svg width="41" height="40" viewBox="0 0 41 40" xmlns="http://www.w3.org/2000/svg" xmlns:xlink="http://www.w3.org/1999/xlink">
    <defs>
        <path id="7dpg24pb0a" d="M0 0h35.294v21.466H0z"/>
    </defs>
    <g fill="none" fill-rule="evenodd">
        <path d="M.5 0h40v40H.5z"/>
        <g transform="translate(2.853 8.122)">
            <mask id="6urkygcutb" fill="#fff">
                <use xlink:href="#7dpg24pb0a"/>
            </mask>
            <path d="M32.937 12.439H19.346l-2.692-2.82V2.856c0-1.953-1.562-2.77-3.503-2.857C5.235 0 0 6.406 0 12.608v5.565c0 2.008 1.29 3.293 3.306 3.293h28.682c2.017 0 3.306-1.285 3.306-3.293v-3.386a2.353 2.353 0 0 0-2.357-2.348" fill="#FFC55C" mask="url(#6urkygcutb)"/>
        </g>
        <path d="M15.618 11.857s-.785-.086-2.067.204c-1.951.444-4.767 1.849-6.437 5.317-.322.669-.407 1.477-.462 2.255h8.966v-7.776z" fill="#FFF"/>
        <path d="M26.788 30.224a3.9 3.9 0 0 0 3.908 3.894 3.9 3.9 0 0 0 3.909-3.894 3.9 3.9 0 0 0-3.909-3.892 3.9 3.9 0 0 0-3.908 3.892M6.292 30.224a3.9 3.9 0 0 0 3.909 3.894 3.901 3.901 0 0 0 3.908-3.894 3.9 3.9 0 0 0-3.908-3.892 3.9 3.9 0 0 0-3.909 3.892" fill="#6D7699"/>
        <path d="M19.511 9.151c0-1.15.945-2.092 2.101-2.092H35.66c1.155 0 2.1.941 2.1 2.092v9.314c0 1.15-.945 2.093-2.1 2.093H21.612c-1.156 0-2.1-.942-2.1-2.093V9.151z" fill="#C9CDDF"/>
        <path fill="#F78470" d="M26.412 11.18h4.448V7.06h-4.448z"/>
    </g>
</svg>
