<svg width="40" height="40" viewBox="0 0 40 40" xmlns="http://www.w3.org/2000/svg" xmlns:xlink="http://www.w3.org/1999/xlink">
    <defs>
        <path id="cxdgyczuka" d="M0 0h5.834v2.86H0z"/>
    </defs>
    <g fill="none" fill-rule="evenodd">
        <path d="M0 0h40v40H0z"/>
        <path d="M11.226 40h18.537a3.989 3.989 0 0 0 3.989-3.989V9.824a3.989 3.989 0 0 0-3.99-3.988H11.227a3.989 3.989 0 0 0-3.989 3.988v26.187A3.989 3.989 0 0 0 11.227 40z" fill="#6D7699"/>
        <path d="M6.7 36.329v.013h22.08a2.916 2.916 0 0 0 2.918-2.913V7.849H9.366v25.58a2.916 2.916 0 0 1-2.665 2.9" fill="#FEFEFE"/>
        <g transform="translate(3.53 33.482)">
            <mask id="w0p70a73rb" fill="#fff">
                <use xlink:href="#cxdgyczuka"/>
            </mask>
            <path d="M2.917 2.86A2.915 2.915 0 0 0 5.834 0H0a2.916 2.916 0 0 0 2.917 2.86" fill="#DCE3E7" mask="url(#w0p70a73rb)"/>
        </g>
        <path d="M26.001 4.979a2.36 2.36 0 0 0-2.361-2.357h-1.12v-.6A2.023 2.023 0 0 0 20.494 0c-1.119 0-2.025.905-2.025 2.022v.6h-1.12a2.36 2.36 0 0 0-2.361 2.357h3.738a2.017 2.017 0 0 0 1.768 1.054c.767 0 1.424-.429 1.769-1.054h3.738z" fill="#C3C3C9"/>
        <path d="M25.728 9.278H13.92a.654.654 0 0 1-.653-.653v-2.15c0-.826.67-1.496 1.496-1.496h10.965c1.101 0 1.994.893 1.994 1.994v.31a1.994 1.994 0 0 1-1.994 1.995z" fill="#F78470"/>
        <path d="M21.208 2.09a.696.696 0 1 1-1.392-.001.696.696 0 0 1 1.392.001" fill="#FFF"/>
        <path d="M16.187 13.76h8.537a.941.941 0 0 0 0-1.882h-8.537a.941.941 0 0 0 0 1.883zM12.411 17.996h16.06a.47.47 0 0 0 0-.941H12.41a.47.47 0 1 0 0 .941zM12.411 20.349h16.06a.47.47 0 0 0 0-.941H12.41a.47.47 0 0 0 0 .941zM12.411 22.702h16.06a.47.47 0 1 0 0-.941H12.41a.47.47 0 0 0 0 .94zM12.411 25.055h16.06a.47.47 0 1 0 0-.941H12.41a.47.47 0 1 0 0 .94z" fill="#C3C3C9"/>
    </g>
</svg>
