<svg width="135" height="40" viewBox="0 0 135 40" xmlns="http://www.w3.org/2000/svg" xmlns:xlink="http://www.w3.org/1999/xlink">
    <defs>
        <path id="fswt0hk99a" d="M0 0h135v40H0z"/>
        <path id="6rrql6nx5c" d="M0 40h135V0H0z"/>
    </defs>
    <g fill="none" fill-rule="evenodd">
        <mask id="28azf0fzjb" fill="#fff">
            <use xlink:href="#fswt0hk99a"/>
        </mask>
        <path d="M130 40H5c-2.75 0-5-2.25-5-5V5c0-2.75 2.25-5 5-5h125c2.75 0 5 2.25 5 5v30c0 2.75-2.25 5-5 5" fill="#000" mask="url(#28azf0fzjb)"/>
        <path d="M130 0H5C2.25 0 0 2.25 0 5v30c0 2.75 2.25 5 5 5h125c2.75 0 5-2.25 5-5V5c0-2.75-2.25-5-5-5zm0 .8c2.316 0 4.2 1.884 4.2 4.2v30c0 2.316-1.884 4.2-4.2 4.2H5A4.205 4.205 0 0 1 .8 35V5C.8 2.684 2.684.8 5 .8h125z" fill="#A6A6A6"/>
        <path d="M47.418 10.243c0 .838-.248 1.505-.745 2.003-.56.592-1.294.888-2.204.888-.872 0-1.61-.302-2.213-.905-.604-.603-.904-1.346-.904-2.229s.3-1.626.904-2.229c.603-.604 1.341-.905 2.213-.905.441 0 .857.078 1.248.234.391.157.713.377.964.663l-.553.552a1.864 1.864 0 0 0-.717-.523 2.359 2.359 0 0 0-.942-.189c-.655 0-1.207.226-1.659.68-.448.457-.67 1.03-.67 1.717s.222 1.26.67 1.718a2.255 2.255 0 0 0 1.66.678c.596 0 1.094-.167 1.49-.503.396-.335.626-.796.687-1.382H44.47v-.72h2.907c.028.156.042.306.042.452" fill="#FFF"/>
        <path d="M47.418 10.243c0 .838-.248 1.505-.745 2.003-.56.592-1.294.888-2.204.888-.872 0-1.61-.302-2.213-.905-.604-.603-.904-1.346-.904-2.229s.3-1.626.904-2.229c.603-.604 1.341-.905 2.213-.905.441 0 .857.078 1.248.234.391.157.713.377.964.663l-.553.552a1.864 1.864 0 0 0-.717-.523 2.359 2.359 0 0 0-.942-.189c-.655 0-1.207.226-1.659.68-.448.457-.67 1.03-.67 1.717s.222 1.26.67 1.718a2.255 2.255 0 0 0 1.66.678c.596 0 1.094-.167 1.49-.503.396-.335.626-.796.687-1.382H44.47v-.72h2.907c.028.156.042.306.042.452z" stroke="#FFF" stroke-width=".2"/>
        <path fill="#FFF" d="M52.028 7v.737h-2.732V9.64h2.463v.72h-2.463v1.903h2.732V13h-3.503V7z"/>
        <path stroke="#FFF" stroke-width=".2" d="M52.028 7v.737h-2.732V9.64h2.463v.72h-2.463v1.903h2.732V13h-3.503V7z"/>
        <path fill="#FFF" d="M55.28 7.737V13h-.771V7.737h-1.676V7h4.123v.737z"/>
        <path stroke="#FFF" stroke-width=".2" d="M55.28 7.737V13h-.771V7.737h-1.676V7h4.123v.737z"/>
        <mask id="agdsntw3fd" fill="#fff">
            <use xlink:href="#6rrql6nx5c"/>
        </mask>
        <path fill="#FFF" mask="url(#agdsntw3fd)" d="M59.937 13h.771V7h-.771z"/>
        <path stroke="#FFF" stroke-width=".2" mask="url(#agdsntw3fd)" d="M59.937 13h.771V7h-.771z"/>
        <path fill="#FFF" mask="url(#agdsntw3fd)" d="M64.128 7.737V13h-.77V7.737H61.68V7h4.123v.737z"/>
        <path stroke="#FFF" stroke-width=".2" mask="url(#agdsntw3fd)" d="M64.128 7.737V13h-.77V7.737H61.68V7h4.123v.737z"/>
        <path d="M69.113 10c0 .693.218 1.266.653 1.718.442.452.99.678 1.643.678.654 0 1.198-.226 1.635-.678.441-.447.662-1.02.662-1.718s-.22-1.271-.662-1.718c-.437-.452-.98-.678-1.635-.678-.653 0-1.2.226-1.643.678-.435.452-.653 1.026-.653 1.718m5.38 0c0 .888-.296 1.63-.888 2.229-.598.604-1.33.905-2.196.905-.87 0-1.604-.301-2.195-.905-.592-.598-.888-1.341-.888-2.23 0-.888.296-1.63.888-2.228.591-.604 1.324-.905 2.195-.905.872 0 1.603.304 2.196.913.592.598.888 1.338.888 2.22" fill="#FFF" mask="url(#agdsntw3fd)"/>
        <path d="M69.113 10c0 .693.218 1.266.653 1.718.442.452.99.678 1.643.678.654 0 1.198-.226 1.635-.678.441-.447.662-1.02.662-1.718s-.22-1.271-.662-1.718c-.437-.452-.98-.678-1.635-.678-.653 0-1.2.226-1.643.678-.435.452-.653 1.026-.653 1.718zm5.38 0c0 .888-.296 1.63-.888 2.229-.598.604-1.33.905-2.196.905-.87 0-1.604-.301-2.195-.905-.592-.598-.888-1.341-.888-2.23 0-.888.296-1.63.888-2.228.591-.604 1.324-.905 2.195-.905.872 0 1.603.304 2.196.913.592.598.888 1.338.888 2.22z" stroke="#FFF" stroke-width=".2" mask="url(#agdsntw3fd)"/>
        <path fill="#FFF" mask="url(#agdsntw3fd)" d="M76.345 13h-.771V7h.939l2.916 4.667h.033l-.033-1.156V7h.77v6h-.803l-3.051-4.894h-.033l.033 1.157z"/>
        <path stroke="#FFF" stroke-width=".2" mask="url(#agdsntw3fd)" d="M76.345 13h-.771V7h.939l2.916 4.667h.033l-.033-1.156V7h.77v6h-.803l-3.051-4.894h-.033l.033 1.157z"/>
        <path d="M106.936 30h1.866V17.499h-1.866V30zm16.807-7.998-2.139 5.42h-.064l-2.22-5.42h-2.01l3.329 7.575-1.898 4.214h1.946l5.131-11.789h-2.075zm-10.582 6.578c-.612 0-1.464-.306-1.464-1.062 0-.965 1.061-1.334 1.978-1.334.82 0 1.206.176 1.705.418a2.262 2.262 0 0 1-2.219 1.978zm.225-6.851c-1.351 0-2.751.595-3.33 1.913l1.657.692c.354-.692 1.013-.917 1.705-.917.965 0 1.946.579 1.962 1.609v.128c-.338-.193-1.061-.482-1.946-.482-1.785 0-3.603.981-3.603 2.814 0 1.673 1.464 2.751 3.104 2.751 1.255 0 1.946-.563 2.381-1.223h.064v.965h1.801v-4.793c0-2.219-1.656-3.457-3.795-3.457zm-11.532 1.795H99.2v-4.285h2.654c1.395 0 2.187 1.155 2.187 2.142 0 .969-.792 2.143-2.187 2.143zm-.048-6.025h-4.471V30H99.2v-4.736h2.606c2.068 0 4.101-1.498 4.101-3.883s-2.033-3.882-4.101-3.882zM77.425 28.582c-1.289 0-2.368-1.079-2.368-2.561 0-1.498 1.079-2.594 2.368-2.594 1.273 0 2.271 1.096 2.271 2.594 0 1.482-.998 2.561-2.271 2.561zm2.142-5.88h-.064c-.419-.499-1.224-.95-2.239-.95-2.127 0-4.076 1.868-4.076 4.269 0 2.384 1.949 4.237 4.076 4.237 1.015 0 1.82-.451 2.239-.967h.064v.612c0 1.628-.869 2.498-2.271 2.498-1.144 0-1.853-.822-2.143-1.515l-1.627.677c.467 1.128 1.708 2.513 3.77 2.513 2.191 0 4.044-1.289 4.044-4.43v-7.637h-1.773v.693zM82.628 30h1.869V17.498h-1.869V30zm4.624-4.124c-.048-1.643 1.273-2.481 2.223-2.481.741 0 1.37.37 1.579.902l-3.802 1.579zm5.8-1.418c-.355-.95-1.434-2.706-3.641-2.706-2.191 0-4.011 1.723-4.011 4.253 0 2.384 1.804 4.253 4.22 4.253 1.95 0 3.077-1.192 3.545-1.885l-1.45-.967c-.484.709-1.144 1.176-2.095 1.176-.95 0-1.627-.435-2.062-1.288l5.687-2.353-.193-.483zm-45.308-1.401v1.804h4.317c-.129 1.015-.467 1.756-.982 2.271-.629.629-1.612 1.321-3.335 1.321-2.659 0-4.737-2.142-4.737-4.8 0-2.659 2.078-4.801 4.737-4.801 1.434 0 2.481.563 3.254 1.288l1.273-1.272c-1.08-1.031-2.513-1.821-4.527-1.821-3.641 0-6.702 2.965-6.702 6.606s3.061 6.605 6.702 6.605c1.965 0 3.447-.645 4.607-1.853 1.192-1.192 1.563-2.867 1.563-4.221 0-.419-.032-.805-.097-1.127h-6.073zm11.078 5.525c-1.288 0-2.4-1.063-2.4-2.577 0-1.531 1.112-2.578 2.4-2.578 1.289 0 2.401 1.047 2.401 2.578 0 1.514-1.112 2.577-2.401 2.577zm0-6.83c-2.352 0-4.269 1.788-4.269 4.253 0 2.448 1.917 4.253 4.269 4.253 2.353 0 4.27-1.805 4.27-4.253 0-2.465-1.917-4.253-4.27-4.253zm9.314 6.83c-1.289 0-2.401-1.063-2.401-2.577 0-1.531 1.112-2.578 2.401-2.578 1.289 0 2.4 1.047 2.4 2.578 0 1.514-1.111 2.577-2.4 2.577zm0-6.83c-2.352 0-4.269 1.788-4.269 4.253 0 2.448 1.917 4.253 4.269 4.253 2.352 0 4.269-1.805 4.269-4.253 0-2.465-1.917-4.253-4.269-4.253z" fill="#FFF" mask="url(#agdsntw3fd)"/>
        <path d="m20.717 19.424-10.647 11.3.002.007a2.874 2.874 0 0 0 4.236 1.734l.034-.02 11.984-6.915-5.609-6.106z" fill="#EA4335" mask="url(#agdsntw3fd)"/>
        <path d="m31.488 17.5-.01-.007-5.174-3-5.829 5.188 5.85 5.848 5.146-2.97a2.88 2.88 0 0 0 .017-5.06" fill="#FBBC04" mask="url(#agdsntw3fd)"/>
        <path d="M10.07 9.277a2.823 2.823 0 0 0-.098.74v19.968c0 .256.034.504.099.74l11.012-11.012L10.07 9.277z" fill="#4285F4" mask="url(#agdsntw3fd)"/>
        <path d="m20.796 20 5.51-5.508-11.97-6.94a2.878 2.878 0 0 0-4.265 1.722l-.001.003L20.796 20z" fill="#34A853" mask="url(#agdsntw3fd)"/>
    </g>
</svg>
