<svg width="32" height="32" viewBox="0 0 32 32" xmlns="http://www.w3.org/2000/svg" xmlns:xlink="http://www.w3.org/1999/xlink">
    <defs>
        <path id="jub7qmfx6a" d="M0 0h16v16H0z"/>
    </defs>
    <g fill="none" fill-rule="evenodd">
        <circle fill="#94949A" cx="16" cy="16" r="16"/>
        <g transform="translate(8 8)">
            <mask id="ipjw5e22fb" fill="#fff">
                <use xlink:href="#jub7qmfx6a"/>
            </mask>
            <path d="M14.464 10.481c0 2.2-1.784 3.983-3.983 3.983H5.52a3.983 3.983 0 0 1-3.984-3.983V5.519c0-2.2 1.784-3.984 3.984-3.984h4.962a3.984 3.984 0 0 1 3.983 3.984v4.962zM11.07 0H4.93A4.93 4.93 0 0 0 0 4.93v6.14A4.93 4.93 0 0 0 4.93 16h6.14A4.93 4.93 0 0 0 16 11.07V4.93A4.93 4.93 0 0 0 11.07 0z" fill="#FFF" mask="url(#ipjw5e22fb)"/>
        </g>
        <path d="M16.215 18.563a2.536 2.536 0 1 1-.001-5.071 2.536 2.536 0 0 1 0 5.071m0-6.75a4.214 4.214 0 1 0-.001 8.429 4.214 4.214 0 0 0 .002-8.428M21.209 11.748a1.072 1.072 0 1 1-2.145-.002 1.072 1.072 0 0 1 2.145.002" fill="#FFF"/>
    </g>
</svg>
