<svg width="34" height="34" viewBox="0 0 34 34" xmlns="http://www.w3.org/2000/svg">
    <g fill="none" fill-rule="evenodd">
        <g transform="translate(5)">
            <rect fill="#F78470" width="25" height="34" rx="3.23"/>
            <rect fill="#FFF" x="2.885" y="2.833" width="19.231" height="28.333" rx="1.938"/>
            <path d="M7.692 0h9.616v3.43c0 .714-.579 1.292-1.292 1.292H8.984A1.292 1.292 0 0 1 7.692 3.43V0z" fill="#F78470"/>
        </g>
        <g fill="#C3C3C9">
            <path d="M10.5 15.649h4.598V11H10.5v4.649zm1.43-1.447h1.737v-1.755H11.93v1.755zM19.749 15.649h4.598V11h-4.598v4.649zm1.43-1.447h1.737v-1.755H21.18v1.755zM10.5 20.351v2.325h1.43v-.878h1.737v1.755h-.868V25h2.299V20.35zM22.543 25H24.5v-1.447h-1.957zM22.543 18.723H24.5v-1.447h-1.957zM19.956 18.723h1.958v-1.447h-1.958zM17.251 21.996V25h3.888v-1.447h-2.457v-1.557zM20.424 21.936h3.922V20.49h-3.922zM16.708 15.649h1.43V11h-1.43zM10.5 18.723h2.952v-1.447H10.5zM18.682 20.445h-1.43v-1.722h-1.87v-1.447h3.3z"/>
        </g>
        <path fill="#FCD462" d="M8.5 17h18v2h-18z"/>
    </g>
</svg>
