<svg width="20" height="20" viewBox="0 0 20 20" fill="none" xmlns="http://www.w3.org/2000/svg">
    <g clip-path="url(#clip0_1_2044)">
        <rect x="12.1266" y="12.1234" width="2.12247" height="4.24494" transform="rotate(-45 12.1266 12.1234)" fill="#DDDDDD"/>
        <path d="M13.672 14.4192C13.6474 14.3945 13.6474 14.3546 13.672 14.33L15.8341 12.1679C15.8587 12.1433 15.8986 12.1433 15.9232 12.1679L19.2555 15.5002C19.8771 16.1218 19.8771 17.1297 19.2555 17.7514C18.6338 18.3731 17.6259 18.3731 17.0043 17.7514L13.672 14.4192Z" fill="#6D7699"/>
        <circle cx="9.8754" cy="8.37134" r="4.17861" transform="rotate(-45 9.8754 8.37134)" fill="#F1F7FF" stroke="#8A93B4" stroke-width="2.25512"/>
        <circle cx="9.96647" cy="8.37134" r="0.530617" transform="rotate(-45 9.96647 8.37134)" fill="#D8D8D8"/>
        <circle cx="8.37461" cy="8.37134" r="0.530617" transform="rotate(-45 8.37461 8.37134)" fill="#D8D8D8"/>
        <circle cx="11.5583" cy="8.37134" r="0.530617" transform="rotate(-45 11.5583 8.37134)" fill="#D8D8D8"/>
        <path fill-rule="evenodd" clip-rule="evenodd" d="M10 16.504C7.51064 16.504 5.5 14.4836 5.5 12C5.5 14.4836 3.48138 16.504 1 16.504C3.48138 16.504 5.5 18.5164 5.5 21C5.5 18.5164 7.51064 16.504 10 16.504Z" fill="#FFD93B"/>
        <path fill-rule="evenodd" clip-rule="evenodd" d="M19.849 3.4245C17.9546 3.4245 16.4245 1.8944 16.4245 0C16.4245 1.8944 14.8944 3.4245 13 3.4245C14.8944 3.4245 16.4245 4.95459 16.4245 6.849C16.4245 4.95459 17.9546 3.4245 19.849 3.4245Z" fill="#FFB030"/>
        <path d="M2.81428 5C2.81428 6.54831 4.07115 7.81428 5.62857 7.81428C4.07115 7.81428 2.81428 9.07115 2.81428 10.6286C2.81428 9.07115 1.54831 7.81428 0 7.81428C1.54831 7.81428 2.81428 6.54831 2.81428 5Z" fill="#FFB030"/>
    </g>
    <defs>
        <clipPath id="clip0_1_2044">
            <rect width="20" height="20" fill="white"/>
        </clipPath>
    </defs>
</svg>
