<svg width="40" height="40" viewBox="0 0 40 40" xmlns="http://www.w3.org/2000/svg" xmlns:xlink="http://www.w3.org/1999/xlink">
    <defs>
        <path id="fudh034o6a" d="M0 34.118h32.941V0H0z"/>
    </defs>
    <g fill="none" fill-rule="evenodd">
        <g transform="translate(0 4.706)">
            <path d="M9.93 23.504c0 .744.064 1.467.19 2.18H2.408v-4.159h7.678c-.104.65-.156 1.308-.156 1.979M0 16.145h12.236a12.771 12.771 0 0 0-1.896 4.158H0v-4.158zM21.045 10.764v.074c-3.09.361-5.835 1.86-7.835 4.084H1.13v-4.158h19.914z" fill="#F6C358"/>
            <mask id="hb6bf4y94b" fill="#fff">
                <use xlink:href="#fudh034o6a"/>
            </mask>
            <path fill="#F6C358" mask="url(#hb6bf4y94b)" d="M3.529 9.544h19.91V5.381H3.528zM.002 4.163h19.91V0H.001z"/>
            <path d="M32.941 23.501c0 5.864-4.682 10.617-10.458 10.617-5.775 0-10.458-4.753-10.458-10.617 0-5.863 4.683-10.616 10.458-10.616 5.776 0 10.458 4.753 10.458 10.616" fill="#FCD462" mask="url(#hb6bf4y94b)"/>
            <path d="M30.366 23.501c0 4.42-3.529 8.003-7.883 8.003-4.353 0-7.882-3.583-7.882-8.003S18.13 15.5 22.483 15.5c4.354 0 7.883 3.583 7.883 8.002" fill="#F6C358" mask="url(#hb6bf4y94b)"/>
        </g>
        <path d="M21.87 21.125a5.4 5.4 0 0 1-5.4-5.4v-3.317a5.4 5.4 0 0 1 5.4-5.4H34.6a5.4 5.4 0 0 1 5.4 5.4v3.317a5.4 5.4 0 0 1-5.4 5.4h-5.344l-4.972 3.58v-3.58h-2.413z" fill="#FF8C79"/>
        <circle fill="#FFF" cx="23.529" cy="14.118" r="1.176"/>
        <circle fill="#FFF" cx="28.235" cy="14.118" r="1.176"/>
        <circle fill="#FFF" cx="32.941" cy="14.118" r="1.176"/>
    </g>
</svg>
