<svg width="34" height="34" viewBox="0 0 34 34" xmlns="http://www.w3.org/2000/svg">
    <g fill="none" fill-rule="evenodd">
        <path d="M0 0h34v34H0z"/>
        <g transform="translate(0 2)">
            <path d="M5 16v-3.556C5 5.572 10.373 0 17 0s12 5.572 12 12.444V16m0 4v5a3 3 0 0 1-3 3h-7" stroke="#6D7699" stroke-width="2"/>
            <rect fill="#6D7699" y="12" width="5" height="8" rx="2.5"/>
            <rect fill="#6D7699" x="29" y="12" width="5" height="8" rx="2.5"/>
            <rect fill="#BDCDE6" x="3" y="10" width="5" height="12" rx="2.5"/>
            <rect fill="#BDCDE6" x="26" y="10" width="5" height="12" rx="2.5"/>
            <circle fill="#BDCDE6" cx="17" cy="28" r="3"/>
            <circle fill="#F78470" cx="17" cy="15" r="7"/>
            <path fill="#FFF" d="M16 11h2v5h-2zM16 17h2v2h-2z"/>
        </g>
    </g>
</svg>
