<svg width="34" height="34" viewBox="0 0 34 34" xmlns="http://www.w3.org/2000/svg">
    <g fill="none" fill-rule="evenodd">
        <g transform="translate(5)">
            <rect fill="#F78470" width="25" height="34" rx="4.75"/>
            <rect fill="#FFF" x="2.885" y="2.833" width="19.231" height="28.333" rx="2.85"/>
            <path d="M7.692 0h9.616v2.822a1.9 1.9 0 0 1-1.9 1.9H9.592a1.9 1.9 0 0 1-1.9-1.9V0z" fill="#F78470"/>
        </g>
        <path d="m19.249 10.923-5.263 5.016c-.544.518-.182 1.443.563 1.442l1.583-.001-2.497 4.404c-.544.959.676 1.938 1.471 1.18l5.263-5.016c.543-.518.182-1.443-.563-1.442l-1.583.001 2.497-4.404c.543-.958-.676-1.938-1.471-1.18" fill="#FFC55C"/>
    </g>
</svg>
