<svg width="40" height="40" viewBox="0 0 40 40" xmlns="http://www.w3.org/2000/svg">
    <g fill="none" fill-rule="evenodd">
        <path d="M0 0h40v40H0z"/>
        <g fill-rule="nonzero">
            <path fill="#FFF" d="M12.266 11.838h16.867v15.514H12.266z"/>
            <path d="M21.013 6.912c-.2-.082-.44-.163-.64-.245-.2.082-.44.163-.64.245-2.36.86-5 1.8-7.92 1.8-.84 0-1.64-.04-2.48-.122v14.198c0 3.11 3.04 6.015 5.56 7.898 2.32 1.718 4.68 2.905 5.44 3.314 1.72-.86 11-5.647 11-11.212V8.631c-.8.082-1.64.123-2.48.123-2.84-.041-5.52-.983-7.84-1.842zm-2.95 18.475-4.268-4.392 1.875-1.93 2.393 2.463 7.657-7.922 1.875 1.93-9.532 9.85z" fill="#F78470"/>
        </g>
    </g>
</svg>
