<svg width="83" height="17" viewBox="0 0 83 17" fill="none" xmlns="http://www.w3.org/2000/svg">
    <path fill-rule="evenodd" clip-rule="evenodd"
          d="M13.735 6.95859H6.00168V4.29192H13.735V6.95859ZM2.57477 4.38204H1.91165C0.931981 4.38204 0.135067 3.58426 0.135067 2.60352C0.135067 1.62304 0.931981 0.825256 1.91165 0.825256H19.3351V4.38204H17.4137V7.13488H19.3351V10.6919H1.91165C0.931981 10.6919 0.135067 9.89414 0.135067 8.9134C0.135067 7.93292 0.931981 7.13488 1.91165 7.13488H2.57477V4.38204ZM24.2895 4.34342H31.8261V7.06617H24.2895C23.322 7.06617 22.535 7.85524 22.535 8.82526V15.0662C22.535 16.0359 23.322 16.8253 24.2895 16.8253H35.335V13.3071H26.0439V10.5843H35.335V0.825256H24.2895C23.322 0.825256 22.535 1.61432 22.535 2.58434C22.535 3.55436 23.322 4.34342 24.2895 4.34342ZM38.0017 16.8253H41.4683V0.825256H38.0017V16.8253ZM1.90889 16.8253H19.335V13.3586H1.90889C0.930709 13.3586 0.13501 14.1361 0.13501 15.0919C0.13501 16.0477 0.930709 16.8253 1.90889 16.8253ZM46.4404 16.8253C45.4632 16.8253 44.6683 16.0477 44.6683 15.0919C44.6683 14.1361 45.4632 13.3586 46.4404 13.3586H57.4683V16.8253H46.4404ZM44.6683 8.69192C44.6683 9.64774 45.4632 10.4253 46.4404 10.4253H57.4683V6.95859H46.4404C45.4632 6.95859 44.6683 7.7361 44.6683 8.69192ZM46.4404 4.29192C45.4632 4.29192 44.6683 3.51441 44.6683 2.55859C44.6683 1.60277 45.4632 0.825256 46.4404 0.825256H57.4683V4.29192H46.4404ZM60.4017 16.8253H63.8683V0.825256H60.4017V16.8253ZM82.535 4.82526C82.535 7.0344 80.7441 8.82526 78.535 8.82526C76.3258 8.82526 74.535 7.0344 74.535 4.82526C74.535 2.61612 76.3258 0.825256 78.535 0.825256C80.7441 0.825256 82.535 2.61612 82.535 4.82526ZM72.4016 14.6919C72.4016 15.8701 71.4465 16.8253 70.2683 16.8253C69.0901 16.8253 68.135 15.8701 68.135 14.6919C68.135 13.5137 69.0901 12.5586 70.2683 12.5586C71.4465 12.5586 72.4016 13.5137 72.4016 14.6919Z"
          fill="#EF4125"/>
</svg>
