<svg width="45" height="42" viewBox="0 0 45 42" xmlns="http://www.w3.org/2000/svg">
    <g fill="none" fill-rule="evenodd">
        <path d="M0 0h39.422v39.422H0z"/>
        <g transform="translate(0 2.319)">
            <path d="M36.828 33.625H3.172C1.42 33.625 0 31.983 0 29.958V3.666C0 1.642 1.42 0 3.172 0h33.656C38.58 0 40 1.642 40 3.666v26.292c0 2.025-1.42 3.667-3.172 3.667" fill="#C9DAF4"/>
            <path d="M4.771 30.59c-.89 0-1.613-.873-1.613-1.946V8.367c0-1.073.724-1.946 1.613-1.946H35.23c.89 0 1.613.873 1.613 1.946v20.277c0 1.073-.724 1.945-1.613 1.945H4.77z" fill="#FFF"/>
            <path d="M27.38 3.184a1.646 1.646 0 1 1-1.647-1.645c.91 0 1.648.737 1.648 1.645" fill="#FDDF7B"/>
            <path d="M32.312 3.184c0 .908-.738 1.645-1.648 1.645a1.646 1.646 0 1 1 0-3.29c.91 0 1.648.737 1.648 1.645" fill="#FD978A"/>
            <path d="M37.243 3.184c0 .908-.738 1.645-1.648 1.645a1.646 1.646 0 1 1 0-3.29c.91 0 1.648.737 1.648 1.645" fill="#2EBD8B"/>
            <rect fill="#F78470" x="7.059" y="11.595" width="4.706" height="15.073" rx="1"/>
            <rect fill="#F78470" x="12.941" y="15.073" width="4.706" height="11.595" rx="1"/>
            <rect fill="#F78470" x="18.824" y="18.552" width="4.706" height="8.116" rx="1"/>
            <path fill="#6D7699" d="M23.529 11.595h9.412v1.159h-9.412zM23.529 13.914h9.412v1.159h-9.412z"/>
        </g>
        <g transform="rotate(-45 40.101 -9.4)">
            <path fill="#DDD" d="M5.3 11.926h2.65v5.3H5.3z"/>
            <path d="M5.638 15.239h1.975a1 1 0 0 1 1 1v4.963a1.988 1.988 0 0 1-3.975 0v-4.963a1 1 0 0 1 1-1z" fill="#6D7699"/>
            <circle stroke="#8A93B4" stroke-width="2" fill="#F1F7FF" cx="6.626" cy="6.626" r="5.626"/>
        </g>
    </g>
</svg>
