<svg width="32" height="32" viewBox="0 0 32 32" xmlns="http://www.w3.org/2000/svg" xmlns:xlink="http://www.w3.org/1999/xlink">
    <defs>
        <path id="vnago5eu7a" d="M0 0h16v16.922H0z"/>
    </defs>
    <g fill="none" fill-rule="evenodd">
        <circle fill="#94949A" cx="16" cy="16" r="16"/>
        <g transform="translate(8 8)">
            <mask id="2y6f44av8b" fill="#fff">
                <use xlink:href="#vnago5eu7a"/>
            </mask>
            <path d="M12.961 10.276h-1.063V7.878c0-.552-.321-.85-.816-.85-.552 0-.906.339-.906 1.023v2.225H9.113V4.41h1.063v2.207c.255-.387.668-.577 1.228-.577.453 0 .824.148 1.112.453.297.305.445.717.445 1.253v2.53zM2.304 7.39c0-1.745 1.333-3 3.015-3 1.46 0 2.555.934 2.824 2.354H6.987c-.176-.772-.87-1.253-1.668-1.253-1.131 0-1.883.806-1.883 1.9 0 1.093.855 1.883 1.883 1.883.784 0 1.454-.47 1.656-1.195h1.16c-.284 1.396-1.37 2.31-2.816 2.31-1.682 0-3.015-1.253-3.015-2.999zM8 0C3.581 0 0 3.313 0 7.4c0 3.018 1.264 4.459 2.996 5.772l.008.004v3.542c0 .167.19.263.325.163l3.033-2.253.066.028A8.67 8.67 0 0 0 8 14.8c4.418 0 8-3.314 8-7.4C16 3.313 12.418 0 8 0z" fill="#FFF" mask="url(#2y6f44av8b)"/>
        </g>
    </g>
</svg>
