<svg width="20" height="18" viewBox="0 0 20 18" fill="none" xmlns="http://www.w3.org/2000/svg">
    <path d="M12.4218 6.67865L7.47753 4.77501C5.83225 4.14317 4.00556 4.81411 3.136 6.28266C3.09829 6.34655 3.07495 6.41789 3.06762 6.49171C3.06029 6.56554 3.06914 6.64008 3.09356 6.71014C3.11797 6.78019 3.15736 6.84409 3.20899 6.89737C3.26062 6.95065 3.32324 6.99204 3.39249 7.01865L9.00707 9.17878L12.4218 6.67865Z" fill="#488FF7"/>
    <path d="M14.0193 10.6539C13.2661 11.044 12.4827 11.3729 11.6768 11.6376L2.24401 14.7558C2.05454 14.819 1.84982 14.8198 1.65986 14.7582C1.46989 14.6965 1.30465 14.5757 1.18834 14.4133C1.06271 14.2395 1.00062 14.0279 1.01246 13.8137C1.02431 13.5996 1.10937 13.3961 1.2534 13.2372L1.56119 12.8972C1.67004 12.7768 1.68849 12.6007 1.60748 12.4593L0.0866944 9.83438C0.0415963 9.75645 0.0134334 9.66989 0.00404284 9.58034C-0.00534776 9.49079 0.00424488 9.40027 0.032195 9.31468C0.0601452 9.22908 0.105825 9.15035 0.166255 9.0836C0.226685 9.01685 0.300507 8.96359 0.382907 8.92729C0.845212 8.72098 1.35683 8.65103 1.85755 8.72567C2.35827 8.80031 2.82725 9.01644 3.20928 9.34862L4.2393 10.2419C4.36222 10.3483 4.54051 10.3624 4.67939 10.2792L12.4988 5.51976C16.8297 3.0312 19.2001 3.5498 19.8666 4.88073C20.6445 6.43842 17.9317 8.62858 14.0196 10.6539H14.0193Z" fill="#DBDBDB"/>
    <path d="M19.9409 5.06151L17.508 5.76747C17.2839 5.83277 17.0447 5.82389 16.8261 5.74215C16.6075 5.66042 16.4212 5.51021 16.295 5.31393L15.5358 4.13565C17.9662 3.36462 19.3763 3.90418 19.8667 4.88071C19.8971 4.94108 19.9199 5.00114 19.9409 5.06151Z" fill="#488FF7"/>
    <path d="M14.4033 6.29428C14.3691 6.29436 14.3358 6.2832 14.3085 6.26251C14.2812 6.24181 14.2614 6.21274 14.2523 6.17974C14.2431 6.14674 14.245 6.11164 14.2577 6.07984C14.2705 6.04804 14.2933 6.02129 14.3226 6.0037L15.1184 5.52638C15.136 5.51536 15.1556 5.50796 15.1761 5.50461C15.1966 5.50126 15.2176 5.50203 15.2378 5.50687C15.258 5.51171 15.277 5.52053 15.2938 5.53282C15.3106 5.5451 15.3247 5.56059 15.3354 5.5784C15.3461 5.59621 15.3531 5.61597 15.3561 5.63653C15.3591 5.65709 15.358 5.67804 15.3527 5.69815C15.3475 5.71827 15.3384 5.73714 15.3258 5.75367C15.3132 5.77021 15.2975 5.78407 15.2795 5.79444L14.4837 6.27207C14.4594 6.28654 14.4316 6.29442 14.4033 6.29428ZM12.7856 7.2533C12.7514 7.25326 12.7182 7.24205 12.6911 7.22138C12.6639 7.2007 12.6442 7.1717 12.6351 7.13879C12.6259 7.10589 12.6278 7.0709 12.6404 7.03916C12.653 7.00742 12.6757 6.98068 12.7049 6.96303L13.5006 6.4854C13.5182 6.47484 13.5378 6.46786 13.5581 6.46485C13.5784 6.46184 13.5991 6.46286 13.6191 6.46786C13.639 6.47285 13.6577 6.48172 13.6742 6.49396C13.6907 6.50621 13.7046 6.52158 13.7152 6.5392C13.7258 6.55682 13.7327 6.57635 13.7358 6.59667C13.7388 6.61699 13.7377 6.6377 13.7327 6.65763C13.7277 6.67755 13.7189 6.6963 13.7066 6.71279C13.6944 6.72929 13.679 6.74321 13.6614 6.75377L12.8657 7.23109C12.8415 7.24561 12.8138 7.25328 12.7856 7.2533ZM11.1675 8.21262C11.1332 8.21282 11.0997 8.20171 11.0723 8.181C11.0449 8.16029 11.0251 8.13114 11.0159 8.09804C11.0067 8.06494 11.0087 8.02975 11.0215 7.99788C11.0343 7.96602 11.0573 7.93926 11.0868 7.92173L11.8826 7.44472C11.9181 7.42425 11.9602 7.41853 11.9999 7.42881C12.0396 7.43908 12.0736 7.46452 12.0947 7.49965C12.1159 7.53479 12.1223 7.57681 12.1128 7.61667C12.1032 7.65653 12.0784 7.69104 12.0437 7.71279L11.2479 8.1901C11.2237 8.20478 11.1959 8.21257 11.1675 8.21262ZM9.54978 9.17164C9.51556 9.17165 9.48228 9.16044 9.45504 9.13972C9.4278 9.119 9.40811 9.08992 9.39899 9.05694C9.38986 9.02396 9.39181 8.9889 9.40453 8.95713C9.41724 8.92536 9.44003 8.89863 9.46939 8.88106L10.2651 8.40374C10.2827 8.39227 10.3025 8.38447 10.3232 8.38081C10.3439 8.37714 10.3651 8.37769 10.3856 8.38242C10.4061 8.38714 10.4254 8.39595 10.4424 8.40831C10.4594 8.42067 10.4738 8.43634 10.4846 8.45437C10.4954 8.4724 10.5025 8.49242 10.5054 8.51324C10.5083 8.53406 10.5069 8.55526 10.5014 8.57555C10.496 8.59585 10.4865 8.61483 10.4735 8.63137C10.4605 8.64791 10.4443 8.66166 10.4259 8.6718L9.63016 9.14943C9.60585 9.16389 9.57806 9.17177 9.54978 9.17164ZM7.93202 10.1307C7.89778 10.1307 7.86445 10.1196 7.83716 10.0989C7.80987 10.0782 7.79013 10.0491 7.78096 10.0161C7.7718 9.98311 7.77372 9.94802 7.78643 9.91621C7.79914 9.88441 7.82194 9.85766 7.85133 9.84007L8.64706 9.36275C8.68265 9.34139 8.72527 9.33504 8.76554 9.3451C8.80581 9.35516 8.84043 9.38081 8.86179 9.4164C8.88316 9.45199 8.8895 9.4946 8.87944 9.53487C8.86938 9.57514 8.84374 9.60977 8.80815 9.63113L8.01241 10.1084C7.98813 10.123 7.96034 10.1307 7.93202 10.1307ZM6.31427 11.09C6.27993 11.0902 6.24647 11.0791 6.21908 11.0584C6.19168 11.0376 6.17186 11.0085 6.16267 10.9754C6.15349 10.9423 6.15546 10.9071 6.16828 10.8752C6.18109 10.8434 6.20404 10.8166 6.23357 10.7991L7.02931 10.3221C7.06477 10.3026 7.10642 10.2975 7.14551 10.3081C7.18459 10.3186 7.21806 10.3439 7.23888 10.3786C7.25971 10.4133 7.26626 10.4548 7.25715 10.4942C7.24805 10.5337 7.22401 10.5681 7.19009 10.5901L6.39435 11.0675C6.37019 11.0821 6.34251 11.0899 6.31427 11.09Z" fill="#304056"/>
    <path d="M12.2599 10.0025C12.5583 9.97994 12.7917 10.2602 12.715 10.5495L11.5149 15.0969C11.0635 16.8006 9.45044 17.8888 7.75105 17.7337C7.67714 17.7269 7.6056 17.7041 7.54142 17.6668C7.47724 17.6295 7.42197 17.5787 7.37944 17.5178C7.33692 17.457 7.30818 17.3876 7.29521 17.3145C7.28225 17.2414 7.28538 17.1664 7.30438 17.0947L8.80578 11.411C8.8283 11.3249 8.87553 11.2458 8.94341 11.1882C9.7967 10.4626 10.9296 10.1032 12.2599 10.0025ZM4.67945 10.279C3.52213 13.0753 1.56093 12.897 1.56093 12.897C1.67041 12.7782 1.68918 12.5999 1.60785 12.4591L0.0876895 9.8348C-0.10624 9.50637 0.0345152 9.08098 0.381712 8.92771C1.30757 8.51483 2.41485 8.65558 3.20934 9.34998L4.23842 10.2414C4.36353 10.3478 4.54182 10.3634 4.67945 10.279Z" fill="#488FF7"/>
    <path d="M18.1949 16.2133C18.3605 16.3376 18.4815 16.512 18.5399 16.7106H12.7921C12.9103 16.3131 13.2751 16.0209 13.7111 16.0209H13.7173C13.783 15.3328 14.3617 14.7948 15.0655 14.7948C15.4221 14.7948 15.7474 14.9293 15.9851 15.1545C16.1602 14.9887 16.3948 14.8855 16.6576 14.8855C16.7986 14.8856 16.9379 14.9166 17.0657 14.9764C17.1934 15.0363 17.3065 15.1234 17.3969 15.2317C17.4873 15.34 17.5528 15.4668 17.5888 15.6031C17.6248 15.7395 17.6305 15.8821 17.6053 16.0209H17.621C17.828 16.0216 18.0293 16.089 18.1949 16.2133Z" fill="#DBDBDB"/>
</svg>
