<svg width="20" height="20" viewBox="0 0 20 20" fill="none" xmlns="http://www.w3.org/2000/svg">
<path fill-rule="evenodd" clip-rule="evenodd" d="M8.97542 4.25443C9.56138 4.90396 9.37559 5.63981 8.85749 6.33802C8.73465 6.50356 8.59307 6.66666 8.42206 6.84639C8.33998 6.93266 8.27597 6.99754 8.1421 7.13155C7.83805 7.43589 7.58247 7.69161 7.37532 7.89874C7.27487 7.99918 7.96069 9.36965 9.29169 10.702C10.622 12.0335 11.9924 12.7198 12.0933 12.6188L12.8595 11.8522C13.2815 11.4298 13.5049 11.226 13.812 11.0246C14.4504 10.6058 15.1467 10.492 15.7339 11.0171C17.6513 12.3886 18.7363 13.2302 19.2679 13.7825C20.3047 14.8598 20.1688 16.5181 19.2738 17.4641C18.9634 17.7921 18.5699 18.1859 18.1051 18.634C15.2935 21.4471 9.35988 19.7351 4.81237 15.1831C0.263823 10.6301 -1.44721 4.69589 1.35844 1.88873C1.86214 1.37712 2.02821 1.21113 2.51877 0.727769C3.43209 -0.172163 5.16686 -0.313074 6.22142 0.728659C6.77612 1.27662 7.66046 2.41445 8.97542 4.25443ZM14.2731 13.2662L13.5067 14.0331C12.204 15.3365 9.98546 14.2254 7.87795 12.1159C5.769 10.0048 4.65919 7.78712 5.96234 6.48408C6.1692 6.27723 6.42455 6.02174 6.72836 5.71764C6.85094 5.59494 6.90701 5.5381 6.97431 5.46737C7.06601 5.37099 7.14136 5.28635 7.20168 5.21145C6.03632 3.58811 5.24412 2.57376 4.81705 2.15189C4.5965 1.93401 4.10264 1.97413 3.92133 2.15278C3.43778 2.62924 3.27884 2.7881 2.77717 3.29761C0.97286 5.10291 2.35412 9.89344 6.22611 13.7692C10.0969 17.6438 14.8867 19.0257 16.7047 17.2069C17.1623 16.7656 17.5352 16.3925 17.8221 16.0892C18.0295 15.87 18.0666 15.4177 17.828 15.1698C17.4307 14.757 16.4579 13.9985 14.7783 12.7923C14.6558 12.8909 14.5053 13.0338 14.2731 13.2662Z" fill="#343434"/>
</svg>
